<svg width="37" height="33" viewBox="0 0 37 33" fill="none" xmlns="http://www.w3.org/2000/svg">
<path d="M32 10.6875V4.875C32 3.84729 31.5917 2.86166 30.865 2.13496C30.1383 1.40826 29.1527 1 28.125 1H8.75C7.72229 1 6.73666 1.40826 6.00996 2.13496C5.28326 2.86166 4.875 3.84729 4.875 4.875V10.6875" stroke="#04405E" stroke-width="1.5" stroke-linecap="round" stroke-linejoin="round"/>
<path d="M1 14.5625V24.25C1 25.2777 1.40826 26.2633 2.13496 26.99C2.86166 27.7167 3.84729 28.125 4.875 28.125H32C33.0277 28.125 34.0133 27.7167 34.74 26.99C35.4667 26.2633 35.875 25.2777 35.875 24.25V14.5625C35.875 13.5348 35.4667 12.5492 34.74 11.8225C34.0133 11.0958 33.0277 10.6875 32 10.6875C30.9723 10.6875 29.9867 11.0958 29.26 11.8225C28.5333 12.5492 28.125 13.5348 28.125 14.5625V18.4375H8.75V14.5625C8.75 13.5348 8.34174 12.5492 7.61504 11.8225C6.88834 11.0958 5.90271 10.6875 4.875 10.6875C3.84729 10.6875 2.86166 11.0958 2.13496 11.8225C1.40826 12.5492 1 13.5348 1 14.5625Z" stroke="#04405E" stroke-width="1.5" stroke-linecap="round" stroke-linejoin="round"/>
<path d="M4.875 28.125V32" stroke="#04405E" stroke-width="1.5" stroke-linecap="round" stroke-linejoin="round"/>
<path d="M32 28.125V32" stroke="#04405E" stroke-width="1.5" stroke-linecap="round" stroke-linejoin="round"/>
</svg>
