<svg width="41" height="33" viewBox="0 0 41 33" fill="none" xmlns="http://www.w3.org/2000/svg">
<path d="M1 32V16.5C1 15.4723 1.40826 14.4867 2.13496 13.76C2.86166 13.0333 3.84729 12.625 4.875 12.625H35.875C36.9027 12.625 37.8883 13.0333 38.615 13.76C39.3417 14.4867 39.75 15.4723 39.75 16.5V32" stroke="#04405E" stroke-width="1.5" stroke-linecap="round" stroke-linejoin="round"/>
<path d="M4.87488 12.625V4.875C4.87488 3.84729 5.28314 2.86166 6.00984 2.13496C6.73654 1.40826 7.72216 1 8.74988 1H31.9999C33.0276 1 34.0132 1.40826 34.7399 2.13496C35.4666 2.86166 35.8749 3.84729 35.8749 4.875V12.625" stroke="#04405E" stroke-width="1.5" stroke-linecap="round" stroke-linejoin="round"/>
<path d="M20.375 1V12.625" stroke="#04405E" stroke-width="1.5" stroke-linecap="round" stroke-linejoin="round"/>
<path d="M1 28.125H39.75" stroke="#04405E" stroke-width="1.5" stroke-linecap="round" stroke-linejoin="round"/>
</svg>
