<svg width="23" height="22" viewBox="0 0 23 22" fill="none" stroke="currentColor" xmlns="http://www.w3.org/2000/svg">
    <path
        d="M2.69243 11C2.69243 13.2443 3.58397 15.3967 5.17093 16.9836C6.75789 18.5706 8.91027 19.4621 11.1546 19.4621C13.3989 19.4621 15.5513 18.5706 17.1382 16.9836C18.7252 15.3967 19.6167 13.2443 19.6167 11M2.69243 11C2.69243 8.7557 3.58397 6.60332 5.17093 5.01636C6.75789 3.4294 8.91027 2.53785 11.1546 2.53785C13.3989 2.53785 15.5513 3.4294 17.1382 5.01636C18.7252 6.60332 19.6167 8.7557 19.6167 11M2.69243 11H1M19.6167 11H21.3091M19.6167 11H11.1546L6.07729 2.20501M1.61266 14.4717L3.20354 13.8929M19.1067 8.10482L20.6976 7.52601M3.37617 17.5271L4.6737 16.4395M17.6377 5.56053L18.9341 4.47286M6.07842 19.795L6.92463 18.3282L11.1568 11M15.3868 3.67178L16.233 2.20501M9.39219 21L9.68555 19.3335M12.6247 2.66648L12.9181 1M12.9181 21L12.6247 19.3335M9.68555 2.66648L9.39219 1M16.2319 19.7939L15.3856 18.3282M18.933 17.5271L17.6366 16.4395M4.6737 5.5594L3.37617 4.47174M20.6976 14.4729L19.1067 13.8941M3.20467 8.10595L1.61379 7.52601"
        stroke="currentColor" stroke-width="1.5" stroke-linecap="round" stroke-linejoin="round" />
</svg>