<svg width="24" height="33" viewBox="0 0 24 33" fill="none" xmlns="http://www.w3.org/2000/svg">
<path d="M1 7.2C1 5.55566 1.65321 3.97866 2.81594 2.81594C3.97866 1.65321 5.55566 1 7.2 1H16.5C18.1443 1 19.7213 1.65321 20.8841 2.81594C22.0468 3.97866 22.7 5.55566 22.7 7.2V28.9C22.7 29.7222 22.3734 30.5107 21.792 31.092C21.2107 31.6734 20.4222 32 19.6 32H4.1C3.27783 32 2.48933 31.6734 1.90797 31.092C1.32661 30.5107 1 29.7222 1 28.9V7.2Z" stroke="#04405E" stroke-width="1.5" stroke-linecap="round" stroke-linejoin="round"/>
<path d="M1 13.4H22.7" stroke="#04405E" stroke-width="1.5" stroke-linecap="round" stroke-linejoin="round"/>
<path d="M16.5 8.75V18.05" stroke="#04405E" stroke-width="1.5" stroke-linecap="round" stroke-linejoin="round"/>
</svg>
