<svg width="26" height="24" viewBox="0 0 26 24" fill="none" xmlns="http://www.w3.org/2000/svg">
    <path fill-rule="evenodd" clip-rule="evenodd"
        d="M9.85209 14.0097H13.3528C13.5246 14.0097 14.0128 14.6943 14.1652 14.8475C14.2986 14.9817 14.3247 15.041 14.441 15.1719L17.6537 18.8607L13.7406 22.2991C13.609 22.4301 13.5428 22.4539 13.4149 22.5735L12.8027 23.1115L10.845 21.4185C10.7571 21.3478 10.7254 21.3007 10.6373 21.2261L7.77278 18.7395C7.66109 18.6527 7.63752 18.6109 7.53663 18.5256L5.75119 17.0102C5.84895 16.8769 6.54128 16.3929 6.73715 16.2459C7.09522 15.9771 7.4078 15.7429 7.76587 15.4742L9.53536 14.143C9.64056 14.0625 9.6828 14.0097 9.85209 14.0097ZM0 12.9219V12.733C0.0611942 12.5545 0.284766 12.3989 0.48784 12.197L2.20045 10.709C1.97623 10.2852 1.60032 9.89377 1.60032 9.25861C1.60032 7.96013 2.58557 6.80813 3.9508 6.80813C5.00977 6.80813 5.12277 7.15397 5.80122 7.60832C6.01215 7.29331 8.10699 5.57609 8.56346 5.16947L9.78983 4.09532C9.91783 3.96803 9.95634 3.95315 10.0872 3.84251C10.2662 3.69107 10.5189 3.50648 10.6522 3.30736C10.5884 3.03317 10.4022 2.75644 10.4022 2.40723C10.4022 1.3892 10.9275 0.701411 11.7037 0.257989C12.5963 -0.251765 13.9193 0.0351858 14.5531 0.756816C15.6195 1.97072 15.0788 2.76795 14.9532 3.30736C15.1667 3.62633 15.8529 4.10294 16.1655 4.39551L19.2466 7.0656C19.4619 7.23802 19.631 7.40891 19.8542 7.55829C20.1055 7.38995 20.2673 7.1838 20.5888 7.04263C22.0819 6.38709 24.0051 7.31044 24.0051 9.10858C24.0051 9.79111 23.6615 10.224 23.4049 10.709C23.5907 10.7585 23.5782 10.822 23.7201 10.9439L24.8764 11.938C25.1123 12.1214 25.6054 12.4541 25.6054 12.7594C25.6054 13.1232 24.5693 13.8217 24.2673 14.1219L23.6839 14.6387C23.5454 14.7458 23.5378 14.7562 23.418 14.8729L21.712 16.3676C21.591 16.4645 21.2365 16.8102 21.1044 16.8102C20.5531 16.8102 20.4832 16.3642 21.0692 15.8748L22.5917 14.5467C23.0747 14.0765 23.6348 13.6931 24.1181 13.2225C24.2722 13.0725 24.4845 12.9395 24.6052 12.7594C24.4663 12.5521 24.1853 12.3506 23.9762 12.1881C23.7138 11.9842 23.1677 11.3793 22.9048 11.3091C22.5953 11.5163 22.0353 12.4093 21.5545 12.4093C21.2399 12.4093 19.8716 10.7813 19.6374 10.3756C19.3343 9.85077 19.1587 9.37055 19.2735 8.72801C19.3475 8.31418 19.5036 8.40632 19.304 8.10839C19.1634 8.14117 18.7542 8.38264 18.6136 8.46811L14.003 11.009C14.003 11.4924 14.003 11.9759 14.003 12.4593C14.003 13.3504 13.8946 13.3252 14.2021 13.7104C14.6249 14.2399 15.1387 14.7253 15.5607 15.2525L16.7415 16.6222C16.8067 16.6955 16.8504 16.725 16.9156 16.7982C17.0046 16.8984 17.0026 16.9221 17.0916 17.0223C17.1567 17.0956 17.2005 17.125 17.2657 17.1983C17.5174 17.4816 17.9962 18.138 18.2538 18.3106C18.5349 18.1618 19.0071 17.7028 19.2648 17.4711C19.7062 17.0742 20.0542 17.3009 20.0542 17.6604C20.0542 17.9128 19.4197 18.3812 19.2251 18.5317L13.7908 23.2995C12.963 24.0742 12.885 24.1831 12.3235 23.7408C11.7777 23.3111 11.2545 22.7986 10.7171 22.3466C10.6308 22.2741 10.5964 22.2224 10.5142 22.1493L10.1142 21.7993C10.0201 21.7157 10.0097 21.7246 9.91688 21.6465L5.91433 18.1474C5.46577 17.7108 4.95472 17.3362 4.48891 16.9222L3.10797 15.7027C2.13187 14.9167 1.27427 14.0371 0.292385 13.2672C0.12357 13.1348 0.0338458 13.0226 0 12.9219ZM21.6046 11.4591C21.1673 11.1663 20.0042 9.75827 20.0042 9.20864C20.0042 8.74809 20.1995 8.38394 20.4178 8.12197C20.8067 7.65534 21.2779 7.60832 21.8046 7.60832C22.6194 7.60832 23.4879 8.64951 23.1698 9.52329C23.0147 9.94917 22.4296 10.6829 22.0927 11.0471C21.9538 11.1975 21.8135 11.4033 21.6046 11.4591ZM3.80077 7.60832C4.31838 7.60832 4.76671 7.6476 5.16441 8.09504C5.92786 8.95388 5.54865 9.67699 4.95206 10.4599C4.77226 10.6958 4.1729 11.3998 3.9508 11.4591C3.67502 11.2744 3.51695 11.0381 3.33573 10.824C3.01777 10.448 2.62763 10.0508 2.4356 9.52329C2.11433 8.64071 2.99166 7.60832 3.80077 7.60832ZM6.20128 8.20845C6.38416 8.1596 6.81405 7.69503 6.99403 7.55085C7.11807 7.45149 7.14454 7.432 7.26415 7.32084C7.3798 7.21333 7.42523 7.203 7.53946 7.09608C7.65246 6.99035 7.68105 6.9503 7.80167 6.85816C7.92228 6.76589 7.95087 6.72673 8.06357 6.61994C8.16605 6.52289 8.24249 6.48125 8.35176 6.40806L10.489 8.42168C10.6223 8.55571 10.6828 8.58046 10.8144 8.69641C11.0206 8.87798 11.1869 9.07775 11.3889 9.27214L12.6406 10.4209C12.7595 10.5413 13.2028 10.9011 13.2028 11.059V13.2095H9.65202C9.33955 13.2095 7.64614 14.5891 7.38016 14.7884L5.7226 16.0314C5.52413 16.1802 5.33984 16.3337 5.15106 16.4602L1.00019 12.8094L2.70058 11.3091C2.85971 11.4156 2.99503 11.6628 3.2886 11.9213C3.42392 12.0405 3.47643 12.0598 3.61211 12.1979C4.04862 12.6424 4.26859 12.3144 4.93854 11.6467C5.01491 11.5706 5.06736 11.5249 5.13919 11.4472L5.7213 10.729C5.92585 10.4322 6.22479 9.98042 6.31404 9.62117C6.38504 9.33546 6.37807 9.22524 6.35179 8.91047C6.32539 8.59363 6.23643 8.48229 6.20128 8.20845ZM11.1523 4.00755C11.3616 4.32002 11.5955 4.5759 11.865 4.84519C12.8263 5.80587 12.7791 5.80587 13.7404 4.84519C14.0099 4.5759 14.2438 4.32002 14.453 4.00755C14.762 4.09001 17.0302 6.21208 17.5963 6.66554C17.8121 6.83831 18.5456 7.38965 18.6039 7.60832L13.6529 10.3088C13.4345 10.1626 13.2899 9.95473 13.0909 9.77061L12.4901 9.2211C12.3912 9.12211 12.3174 9.03687 12.2147 8.94644L8.95189 5.90794C9.10228 5.68336 9.26607 5.59576 9.46401 5.41986L10.2899 4.69545C10.4476 4.53863 11.0018 4.04772 11.1523 4.00755ZM11.2024 2.40723C11.2024 1.43982 11.9609 0.761424 12.8027 0.761424C13.6508 0.761424 14.403 1.43739 14.403 2.40723C14.403 2.99483 13.2366 4.36709 12.8027 4.65765C12.5683 4.50071 12.0832 3.94488 11.8672 3.69272C11.6595 3.45013 11.2024 2.80617 11.2024 2.40723Z"
        fill="#04405E" />
    <path fill-rule="evenodd" clip-rule="evenodd"
        d="M11.2024 18.4606C11.2024 17.9612 11.3472 17.5626 11.6889 17.2468C12.6508 16.3576 14.403 16.8797 14.403 18.4606C14.403 18.8871 13.9552 19.4415 13.7465 19.7044C13.5478 19.9546 13.0522 20.544 12.8027 20.7111C12.4172 20.4529 11.2024 19.0181 11.2024 18.4606ZM10.4022 18.4106C10.4022 19.46 11.5991 20.66 12.3642 21.3496C12.7149 21.6657 12.813 21.7686 13.2398 21.3482C13.6184 20.9753 13.8343 20.8618 14.2821 20.2901C14.6161 19.8636 15.2032 19.1148 15.2032 18.4106C15.2032 16.2727 12.5769 15.2565 11.1129 16.7208C10.751 17.0827 10.4022 17.7024 10.4022 18.4106Z"
        fill="#04405E" />
    <path fill-rule="evenodd" clip-rule="evenodd"
        d="M12.4026 18.5106C12.4026 17.8223 13.2028 17.8223 13.2028 18.5106C13.2028 18.9133 12.4026 18.9133 12.4026 18.5106ZM11.6024 18.4106C11.6024 19.9913 14.003 19.9854 14.003 18.4106C14.003 16.8558 11.6024 16.8558 11.6024 18.4106Z"
        fill="#04405E" />
    <path fill-rule="evenodd" clip-rule="evenodd"
        d="M21.6046 9.60871C21.1277 9.60871 21.0059 8.80858 21.6546 8.80858C22.175 8.80858 22.1548 9.60871 21.6046 9.60871ZM20.4543 9.05862C20.4543 9.47085 20.4716 9.79348 20.8237 10.0895C21.6363 10.7724 22.8048 10.2855 22.8048 9.10859C22.8048 8.53439 22.2308 8.00839 21.6546 8.00839C21.0483 8.00839 20.4543 8.47497 20.4543 9.05862Z"
        fill="#04405E" />
    <path fill-rule="evenodd" clip-rule="evenodd"
        d="M12.4026 2.40723C12.4026 1.8338 13.2028 1.8338 13.2028 2.40723C13.2028 2.93257 12.4026 2.93257 12.4026 2.40723ZM11.6024 2.40723C11.6024 3.02248 12.1947 3.55745 12.6026 3.55745C13.0327 3.55745 13.367 3.54948 13.6899 3.19436C14.2775 2.54822 14.0439 1.20697 12.7027 1.20697C12.113 1.20697 11.6024 1.80875 11.6024 2.40723Z"
        fill="#04405E" />
    <path fill-rule="evenodd" clip-rule="evenodd"
        d="M3.9508 8.80858C4.09735 8.80858 4.19865 8.82087 4.28914 8.92034C4.52116 9.17539 4.34466 9.60871 4.00083 9.60871C3.45056 9.60871 3.43036 8.80858 3.9508 8.80858ZM2.80058 9.10859C2.80058 10.2536 3.8814 10.7579 4.75306 10.1109C5.46949 9.57918 5.26039 8.00839 3.9508 8.00839C3.3746 8.00839 2.80058 8.53439 2.80058 9.10859Z"
        fill="#04405E" />
</svg>