<svg width="23" height="22" viewBox="0 0 23 22" fill="none" stroke="currentColor" xmlns="http://www.w3.org/2000/svg">
    <path
        d="M7.76658 5.0788V14.3828M14.5332 7.61626V16.9203M15.1004 20.8652L20.5983 18.1169C21.028 17.9026 21.2997 17.4628 21.2997 16.9823V2.90221C21.2997 1.9594 20.3073 1.3459 19.4637 1.76768L15.1004 3.94878C14.7429 4.12809 14.3223 4.12809 13.9659 3.94878L8.33385 1.13388C8.15771 1.04584 7.9635 1 7.76658 1C7.56967 1 7.37545 1.04584 7.19932 1.13388L1.70147 3.88224C1.27066 4.09764 1 4.53747 1 5.01677V19.0969C1 20.0397 1.99243 20.6532 2.836 20.2314L7.19932 18.0503C7.55682 17.871 7.97747 17.871 8.33385 18.0503L13.9659 20.8664C14.3234 21.0445 14.7441 21.0445 15.1004 20.8664V20.8652Z"
        stroke="currentColor" stroke-width="1.5" stroke-linecap="round" stroke-linejoin="round" />
</svg>