<svg width="18" height="18" viewBox="0 0 18 18" fill="none" xmlns="http://www.w3.org/2000/svg">
<path d="M13.8 5.8C13.8 9.4 9 13 9 13C9 13 4.2 9.4 4.2 5.8C4.2 4.52696 4.70571 3.30606 5.60588 2.40589C6.50606 1.50571 7.72696 1 9 1C10.273 1 11.4939 1.50571 12.3941 2.40589C13.2943 3.30606 13.8 4.52696 13.8 5.8Z" stroke="#04405E" stroke-linecap="round" stroke-linejoin="round"/>
<path d="M9 7.40001C9.88366 7.40001 10.6 6.68367 10.6 5.80001C10.6 4.91636 9.88366 4.20001 9 4.20001C8.11635 4.20001 7.4 4.91636 7.4 5.80001C7.4 6.68367 8.11635 7.40001 9 7.40001Z" stroke="#04405E" stroke-linecap="round" stroke-linejoin="round"/>
<path d="M6.468 10.6H3.4C3.23723 10.6089 3.08105 10.6673 2.95237 10.7673C2.82369 10.8674 2.72866 11.0044 2.68 11.16L1.08 15.96C1 16.04 1 16.12 1 16.2C1 16.68 1.32 17 1.8 17H16.2C16.68 17 17 16.68 17 16.2C17 16.12 17 16.04 16.92 15.96L15.32 11.16C15.2713 11.0044 15.1763 10.8674 15.0476 10.7673C14.919 10.6673 14.7628 10.6089 14.6 10.6H11.532" stroke="#04405E" stroke-linecap="round" stroke-linejoin="round"/>
</svg>
