<svg width="18" height="18" viewBox="0 0 18 18" fill="none" xmlns="http://www.w3.org/2000/svg">
<path d="M10.72 7.79999C10.72 8.30921 10.5177 8.79756 10.1576 9.15763C9.79756 9.5177 9.30921 9.71999 8.79999 9.71999C8.29077 9.71999 7.80241 9.5177 7.44234 9.15763C7.08227 8.79756 6.87999 8.30921 6.87999 7.79999C6.87999 7.29077 7.08227 6.80241 7.44234 6.44234C7.80241 6.08227 8.29077 5.87999 8.79999 5.87999C9.30921 5.87999 9.79756 6.08227 10.1576 6.44234C10.5177 6.80241 10.72 7.29077 10.72 7.79999Z" stroke="#1E1E1E" stroke-linecap="round" stroke-linejoin="round" stroke-width="1.5"/>
<path d="M13.6 7.8C13.6 12.3709 8.8 15 8.8 15C8.8 15 4 12.3709 4 7.8C4 6.52696 4.50571 5.30606 5.40589 4.40589C6.30606 3.50571 7.52696 3 8.8 3C10.073 3 11.2939 3.50571 12.1941 4.40589C13.0943 5.30606 13.6 6.52696 13.6 7.8Z" stroke="#1E1E1E" stroke-linecap="round" stroke-linejoin="round" stroke-width="1.5"/>
</svg>
