<svg width="20" height="20" viewBox="0 0 20 20" fill="none" stroke="currentColor" xmlns="http://www.w3.org/2000/svg">
    <path
        d="M12.733 15.082C14.5962 14.8614 16.4269 14.4217 18.187 13.772C16.6964 12.1208 15.8727 9.9745 15.876 7.75V7.05V7C15.876 5.4087 15.2439 3.88258 14.1186 2.75736C12.9934 1.63214 11.4673 1 9.876 1C8.2847 1 6.75858 1.63214 5.63336 2.75736C4.50814 3.88258 3.876 5.4087 3.876 7V7.75C3.87902 9.97463 3.05499 12.121 1.564 13.772C3.297 14.412 5.124 14.857 7.019 15.082M12.733 15.082C10.835 15.3071 8.91701 15.3071 7.019 15.082M12.733 15.082C12.8771 15.5319 12.9129 16.0094 12.8376 16.4757C12.7622 16.942 12.5778 17.384 12.2994 17.7656C12.0209 18.1472 11.6563 18.4576 11.2352 18.6716C10.8141 18.8856 10.3484 18.9972 9.876 18.9972C9.40362 18.9972 8.93792 18.8856 8.51681 18.6716C8.09569 18.4576 7.73107 18.1472 7.45262 17.7656C7.17417 17.384 6.98976 16.942 6.91441 16.4757C6.83906 16.0094 6.8749 15.5319 7.019 15.082M1 5.5C1.28197 3.82497 2.0338 2.26444 3.168 1M16.584 1C17.7182 2.26444 18.47 3.82497 18.752 5.5"
        stroke="currentColor" stroke-width="1.5" stroke-linecap="round" stroke-linejoin="round" />
</svg>