<svg width="19" height="23" viewBox="0 0 19 23" fill="none" xmlns="http://www.w3.org/2000/svg">
<path d="M9.4 22C9.4 22 17.8 17.8 17.8 11.5V4.15L9.4 1L1 4.15V11.5C1 17.8 9.4 22 9.4 22Z" stroke="black" stroke-width="1.5" stroke-linecap="round" stroke-linejoin="round"/>
<path d="M12.4 10.6H6.8C6.35817 10.6 6 10.9582 6 11.4V14.2C6 14.6418 6.35817 15 6.8 15H12.4C12.8418 15 13.2 14.6418 13.2 14.2V11.4C13.2 10.9582 12.8418 10.6 12.4 10.6Z" stroke="black" stroke-width="1.2" stroke-linecap="round" stroke-linejoin="round"/>
<path d="M7.60004 10.6V9C7.60004 8.46957 7.81075 7.96086 8.18582 7.58579C8.5609 7.21071 9.0696 7 9.60004 7C10.1305 7 10.6392 7.21071 11.0143 7.58579C11.3893 7.96086 11.6 8.46957 11.6 9V10.6" stroke="black" stroke-width="1.2" stroke-linecap="round" stroke-linejoin="round"/>
</svg>
