<svg width="40" height="40" viewBox="0 0 40 40" fill="none" xmlns="http://www.w3.org/2000/svg">
    <circle cx="20" cy="20" r="20" fill="#9E9E9E" />
    <path fill-rule="evenodd" clip-rule="evenodd"
        d="M33.7128 34.5579C35.7005 32.6902 37.284 30.4346 38.3654 27.9307C39.4468 25.4267 40.0031 22.7275 40 20C40 8.95384 31.0461 0 20 0C8.95385 0 1.33522e-05 8.95384 1.33522e-05 20C-0.00314255 22.7275 0.553176 25.4267 1.63458 27.9307C2.71598 30.4346 4.29948 32.6902 6.28719 34.5579C9.99372 38.0592 14.9012 40.0068 20 40C25.0988 40.0068 30.0063 38.0592 33.7128 34.5579ZM7.98975 31.922C9.42991 30.1203 11.2575 28.6661 13.3367 27.6675C15.4159 26.6689 17.6934 26.1515 20 26.1538C22.3066 26.1515 24.5841 26.6689 26.6633 27.6675C28.7425 28.6661 30.5701 30.1203 32.0102 31.922C30.439 33.5091 28.5683 34.7684 26.5066 35.6269C24.4449 36.4854 22.2333 36.9259 20 36.9231C17.7667 36.9259 15.5551 36.4854 13.4934 35.6269C11.4317 34.7684 9.56098 33.5091 7.98975 31.922ZM27.6923 13.8461C27.6923 15.8863 26.8819 17.8428 25.4393 19.2854C23.9967 20.728 22.0401 21.5385 20 21.5385C17.9599 21.5385 16.0033 20.728 14.5607 19.2854C13.1181 17.8428 12.3077 15.8863 12.3077 13.8461C12.3077 11.806 13.1181 9.84945 14.5607 8.40687C16.0033 6.96428 17.9599 6.15384 20 6.15384C22.0401 6.15384 23.9967 6.96428 25.4393 8.40687C26.8819 9.84945 27.6923 11.806 27.6923 13.8461Z"
        fill="#EEEEEE" />
</svg>